<?xml version="1.0" encoding="UTF-8"?>
<!DOCTYPE svg PUBLIC "-//W3C//DTD SVG 1.1//EN" "http://www.w3.org/Graphics/SVG/1.1/DTD/svg11.dtd">
<!-- Creator: CorelDRAW 2020 (64-Bit) -->
<svg xmlns="http://www.w3.org/2000/svg" xml:space="preserve" width="70mm" height="70.0002mm" version="1.1" style="shape-rendering:geometricPrecision; text-rendering:geometricPrecision; image-rendering:optimizeQuality; fill-rule:evenodd; clip-rule:evenodd"
viewBox="0 0 2526.94 2526.95"
 xmlns:xlink="http://www.w3.org/1999/xlink"
 xmlns:xodm="http://www.corel.com/coreldraw/odm/2003">
 <defs>
  <style type="text/css">
   <![CDATA[
    .fil3 {fill:#296D50}
    .fil2 {fill:#29613F}
    .fil1 {fill:#2A2A2A;fill-rule:nonzero}
    .fil0 {fill:url(#id0)}
   ]]>
  </style>
  <radialGradient id="id0" gradientUnits="userSpaceOnUse" gradientTransform="matrix(0.999997 -0 -0 1 0 0)" cx="1263.47" cy="1263.47" r="1263.47" fx="1263.47" fy="1263.47">
   <stop offset="0" style="stop-opacity:1; stop-color:#D9E5A6"/>
   <stop offset="1" style="stop-opacity:1; stop-color:#BAD36E"/>
  </radialGradient>
 </defs>
 <g id="Layer_x0020_1">
  <metadata id="CorelCorpID_0Corel-Layer"/>
  <path class="fil0" d="M180.5 0l2165.95 0c99.27,0 180.5,81.22 180.5,180.5l0 2165.96c0,99.27 -81.22,180.5 -180.5,180.5l-2165.95 0c-99.27,0 -180.5,-81.22 -180.5,-180.5l0 -2165.96c0,-99.27 81.22,-180.5 180.5,-180.5z"/>
  <path class="fil1" d="M643.66 1342.24l278.19 0 345.31 -900.32 -275.4 0 -209.7 595.56 -209.7 -595.56 -274.01 0 345.31 900.32zm693.41 0l506.08 0c191.54,0 300.58,-96.45 300.58,-267.02 0,-111.86 -48.94,-160.76 -125.83,-191.54 55.93,-36.35 93.67,-99.24 93.67,-192.9 0,-159.4 -97.85,-248.86 -279.61,-248.86l-494.88 0 0 900.32zm253.04 -541.03l0 -174.75 163.58 0c75.48,0 103.44,30.75 103.44,88.07 0,55.93 -29.36,86.68 -96.45,86.68l-170.56 0zm0 357.9l0 -184.55 176.13 0c78.3,0 109.04,30.75 109.04,88.07 0,69.91 -33.54,96.48 -103.45,96.48l-181.73 0z"/>
  <g id="_2173555599232">
   <path class="fil2" d="M395.7 2203.26c-110.1,0 -194.09,-26.89 -251.97,-80.69 -57.88,-53.79 -86.82,-130.39 -86.82,-229.8 0,-63.54 10.93,-117.77 32.79,-162.71 9.88,63.53 64.82,112.14 131.12,112.14 7.46,0 14.78,-0.63 21.9,-1.81 -3.08,15.73 -4.62,33.19 -4.62,52.38 0,55.37 14.31,95.79 42.94,121.27 28.63,25.48 71.25,38.22 127.87,38.22 62.29,0 120.17,-11.64 173.64,-34.92l0 155.71c-58.51,20.13 -120.79,30.2 -186.86,30.2zm-119.12 -614.21c35.23,-8.28 74.62,-12.42 118.18,-12.42 35.86,0 68.42,2.67 97.68,8.02 29.25,5.35 58.66,13.37 88.23,24.07l0 154.77c-54.11,-23.91 -111.99,-35.86 -173.64,-35.86 -20.39,0 -38.9,1.64 -55.5,4.92 1.31,-7.49 2,-15.19 2,-23.05 0,-53.38 -31.51,-99.38 -76.95,-120.45zm614.57 614.21c-174.27,0 -261.41,-77.7 -261.41,-233.1 0,-76.13 21.71,-134.01 65.12,-173.65 43.41,-39.63 108.84,-59.45 196.29,-59.45 88.08,0 153.98,19.82 197.71,59.45 43.73,39.64 65.59,97.52 65.59,173.65 0,155.4 -87.77,233.1 -263.3,233.1zm0 -129.29c28.94,0 49.86,-8.18 62.76,-24.54 12.9,-16.36 19.35,-42.78 19.35,-79.27 0,-35.86 -6.45,-62.13 -19.35,-78.8 -12.9,-16.67 -33.82,-25.01 -62.76,-25.01 -28.31,0 -48.76,8.34 -61.34,25.01 -12.58,16.67 -18.87,42.94 -18.87,78.8 0,36.49 6.29,62.91 18.87,79.27 12.58,16.36 33.03,24.54 61.34,24.54zm329.36 -327.47l170.81 0 4.72 35.86c19.5,-11.32 43.25,-21.23 71.25,-29.73 27.99,-8.49 56.15,-13.68 84.46,-15.57l0 132.12c-26.42,1.89 -54.42,5.97 -83.99,12.27 -29.57,6.29 -52.85,13.53 -69.83,21.71l0 290.67 -177.42 0 0 -447.32zm582.27 456.76c-80.53,0 -144.86,-19.97 -192.99,-59.92 -48.13,-39.95 -72.19,-97.36 -72.19,-172.23 0,-72.98 20.45,-130.23 61.34,-171.76 40.89,-41.52 100.66,-62.28 179.31,-62.28 72.35,0 129.29,18.56 170.81,55.68 41.52,37.12 62.29,87.77 62.29,151.94l0 78.33 -310.49 0c7.55,23.28 23.12,40.11 46.71,50.49 23.59,10.38 56.47,15.57 98.62,15.57 25.16,0 50.8,-2.2 76.91,-6.61 26.11,-4.4 47.34,-10.06 63.7,-16.98l0 106.64c-44.04,20.76 -105.38,31.14 -184.03,31.14zm55.68 -276.51l0 -16.04c0,-40.27 -24.85,-60.4 -74.56,-60.4 -29.57,0 -50.8,6.29 -63.7,18.88 -12.9,12.58 -19.35,31.77 -19.35,57.57l157.6 0zm360.5 276.51c-37.12,0 -72.67,-2.67 -106.64,-8.02 -33.97,-5.35 -61.03,-12.11 -81.16,-20.29l0 -127.4c20.76,10.06 46.24,17.93 76.44,23.59 30.2,5.66 56.94,8.49 80.22,8.49 16.09,0 29.05,-0.26 38.87,-0.79 8.49,54.7 55.79,96.57 112.89,96.57 14.01,0 27.43,-2.52 39.83,-7.14 -37.03,23.33 -90.51,34.99 -160.45,34.99zm8.69 -165.15c-8.83,-3.12 -19.91,-6.58 -33.22,-10.38l-47.19 -15.1c-43.41,-15.73 -74.56,-33.34 -93.43,-52.85 -18.87,-19.5 -28.31,-47.19 -28.31,-83.05 0,-93.11 72.98,-139.67 218.94,-139.67 27.68,0 56.94,2.2 87.76,6.61 30.83,4.4 55.68,9.44 74.56,15.1l0 124.57c-18.25,-7.55 -38.54,-13.37 -60.87,-17.46 -22.34,-4.09 -42.94,-6.14 -61.81,-6.14 -25.8,0 -45.14,1.1 -58.04,3.3 -12.9,2.2 -19.35,7.39 -19.35,15.57 0,6.92 4.25,12.27 12.74,16.04 8.49,3.78 23.44,8.49 44.83,14.16l41.52 12.27c33.97,10.07 60.56,21.08 79.74,33.03 4.69,2.92 9.04,5.99 13.05,9.19 -17.22,-10.4 -37.41,-16.4 -59,-16.4 -55.21,0 -101.27,39.15 -111.93,91.2z"/>
   <path class="fil3" d="M2339.58 1964.67c53.29,0 96.49,43.19 96.49,96.49 0,53.29 -43.2,96.48 -96.49,96.48 -53.29,0 -96.49,-43.19 -96.49,-96.48 0,-53.3 43.2,-96.49 96.49,-96.49zm0 53.95c23.49,0 42.54,19.05 42.54,42.54 0,23.49 -19.05,42.54 -42.54,42.54 -23.5,0 -42.54,-19.05 -42.54,-42.54 0,-23.5 19.05,-42.54 42.54,-42.54z"/>
   <path class="fil3" d="M220.82 1597.42c61.9,0 112.07,50.17 112.07,112.08 0,61.9 -50.17,112.07 -112.07,112.07 -61.9,0 -112.08,-50.17 -112.08,-112.07 0,-61.9 50.17,-112.08 112.08,-112.08zm0 62.66c27.29,0 49.41,22.12 49.41,49.41 0,27.29 -22.12,49.41 -49.41,49.41 -27.29,0 -49.41,-22.12 -49.41,-49.41 0,-27.29 22.12,-49.41 49.41,-49.41z"/>
  </g>
 </g>
</svg>
