<?xml version="1.0" encoding="UTF-8"?>
<!DOCTYPE svg PUBLIC "-//W3C//DTD SVG 1.1//EN" "http://www.w3.org/Graphics/SVG/1.1/DTD/svg11.dtd">
<!-- Creator: CorelDRAW 2020 (64-Bit) -->
<svg xmlns="http://www.w3.org/2000/svg" xml:space="preserve" width="47.1101mm" height="7.9243mm" version="1.1" style="shape-rendering:geometricPrecision; text-rendering:geometricPrecision; image-rendering:optimizeQuality; fill-rule:evenodd; clip-rule:evenodd"
viewBox="0 0 11864.69 1995.74"
 xmlns:xlink="http://www.w3.org/1999/xlink"
 xmlns:xodm="http://www.corel.com/coreldraw/odm/2003">
 <defs>
  <style type="text/css">
   <![CDATA[
    .fil2 {fill:#296D50}
    .fil0 {fill:#29613F}
    .fil1 {fill:#2A2A2A;fill-rule:nonzero}
   ]]>
  </style>
 </defs>
 <g id="Layer_x0020_1">
  <metadata id="CorelCorpID_0Corel-Layer"/>
  <g id="_2173566023808">
   <path class="fil0" d="M5366.48 1995.74c-350.65,0 -618.14,-85.65 -802.5,-256.99 -184.33,-171.31 -276.51,-415.28 -276.51,-731.88 0,-202.34 34.81,-375.08 104.42,-518.21 31.48,202.34 206.44,357.15 417.62,357.15 23.75,0 47.05,-2.01 69.74,-5.77 -9.8,50.12 -14.71,105.7 -14.71,166.83 0,176.35 45.58,305.07 136.75,386.24 91.17,81.15 226.94,121.72 407.27,121.72 198.38,0 382.71,-37.07 553.01,-111.19l0 495.92c-186.32,64.12 -384.7,96.18 -595.1,96.18zm-379.39 -1956.17c112.2,-26.37 237.67,-39.57 376.39,-39.57 114.21,0 217.9,8.54 311.09,25.56 93.16,17.03 186.85,42.59 281.01,76.64l0 492.92c-172.32,-76.13 -356.67,-114.21 -553.04,-114.21 -64.95,0 -123.89,5.24 -176.77,15.69 4.18,-23.85 6.4,-48.38 6.4,-73.44 0,-170 -100.36,-316.5 -245.08,-383.59zm1957.33 1956.17c-555.03,0 -832.54,-247.47 -832.54,-742.38 0,-242.46 69.13,-426.81 207.37,-553.04 138.27,-126.23 346.65,-189.37 625.17,-189.37 280.51,0 490.4,63.14 629.65,189.37 139.27,126.23 208.91,310.58 208.91,553.04 0,494.91 -279.53,742.38 -838.56,742.38zm0 -411.78c92.15,0 158.79,-26.04 199.87,-78.15 41.08,-52.11 61.6,-136.25 61.6,-252.45 0,-114.24 -20.53,-197.88 -61.6,-250.99 -41.08,-53.09 -107.72,-79.64 -199.87,-79.64 -90.19,0 -155.29,26.55 -195.36,79.64 -40.07,53.12 -60.12,136.75 -60.12,250.99 0,116.2 20.05,200.35 60.12,252.45 40.07,52.11 105.17,78.15 195.36,78.15zm1048.93 -1042.94l544.02 0 15.04 114.21c62.11,-36.09 137.76,-67.65 226.92,-94.7 89.15,-27.02 178.84,-43.57 269,-49.59l0 420.79c-84.14,6.02 -173.32,19.04 -267.52,39.06 -94.17,20.05 -168.31,43.09 -222.38,69.13l0 925.73 -565.08 0 0 -1424.64zm1854.45 1454.71c-256.48,0 -461.34,-63.62 -614.64,-190.85 -153.28,-127.26 -229.91,-310.08 -229.91,-548.53 0,-232.43 65.1,-414.77 195.36,-547.02 130.23,-132.25 320.58,-198.38 571.05,-198.38 230.44,0 411.78,59.11 544.02,177.33 132.25,118.24 198.38,279.53 198.38,483.91l0 249.48 -988.84 0c24.03,74.12 73.62,127.71 148.77,160.78 75.13,33.07 179.85,49.59 314.08,49.59 80.14,0 161.79,-7 244.95,-21.03 83.16,-14.03 150.78,-32.06 202.87,-54.1l0 339.62c-140.26,66.14 -335.62,99.2 -586.08,99.2zm177.33 -880.64l0 -51.1c0,-128.24 -79.13,-192.36 -237.44,-192.36 -94.17,0 -161.79,20.05 -202.87,60.12 -41.08,40.07 -61.6,101.19 -61.6,183.35l501.91 0zm1148.13 880.64c-118.22,0 -231.43,-8.51 -339.62,-25.56 -108.19,-17.03 -194.38,-38.56 -258.5,-64.62l0 -405.73c66.14,32.04 147.28,57.09 243.46,75.13 96.18,18.03 181.33,27.05 255.48,27.05 51.25,0 92.5,-0.83 123.78,-2.54 27.05,174.23 177.71,307.58 359.54,307.58 44.6,0 87.34,-8.06 126.86,-22.74 -117.94,74.27 -288.27,111.44 -511,111.44zm27.68 -525.99c-28.13,-9.9 -63.42,-20.93 -105.83,-33.07l-150.28 -48.08c-138.24,-50.09 -237.44,-106.21 -297.54,-168.31 -60.12,-62.13 -90.16,-150.3 -90.16,-264.49 0,-296.55 232.43,-444.84 697.27,-444.84 88.17,0 181.36,7.03 279.53,21.05 98.2,14.03 177.33,30.05 237.44,48.08l0 396.74c-58.1,-24.03 -122.73,-42.56 -193.85,-55.61 -71.15,-13.02 -136.75,-19.54 -196.87,-19.54 -82.15,0 -143.78,3.53 -184.86,10.53 -41.08,7.03 -61.6,23.55 -61.6,49.59 0,22.06 13.52,39.09 40.57,51.1 27.05,12.04 74.62,27.05 142.77,45.08l132.25 39.09c108.19,32.06 192.84,67.12 253.97,105.2 14.91,9.29 28.79,19.07 41.56,29.26 -54.85,-33.14 -119.15,-52.23 -187.91,-52.23 -175.84,0 -322.52,124.69 -356.47,290.46z"/>
   <path class="fil1" d="M742.25 1965.67l597.94 0 742.25 -1935.24 -591.97 0 -450.76 1280.18 -450.74 -1280.18 -588.98 0 742.25 1935.24zm1490.47 0l1087.79 0c411.72,0 646.1,-207.32 646.1,-573.94 0,-240.44 -105.2,-345.56 -270.49,-411.72 120.23,-78.12 201.35,-213.32 201.35,-414.65 0,-342.62 -210.32,-534.93 -601.04,-534.93l-1063.71 0 0 1935.24zm543.9 -1162.94l0 -375.61 351.61 0c162.24,0 222.33,66.09 222.33,189.32 0,120.21 -63.09,186.29 -207.32,186.29l-366.62 0zm0 769.33l0 -396.69 378.61 0c168.29,0 234.37,66.09 234.37,189.29 0,150.28 -72.08,207.4 -222.33,207.4l-390.64 0z"/>
   <path class="fil2" d="M11557.41 1235.85c169.72,0 307.28,137.59 307.28,307.31 0,169.72 -137.56,307.28 -307.28,307.28 -169.75,0 -307.31,-137.56 -307.31,-307.28 0,-169.72 137.56,-307.31 307.31,-307.31zm0 171.81c74.8,0 135.47,60.67 135.47,135.5 0,74.82 -60.67,135.47 -135.47,135.47 -74.85,0 -135.5,-60.65 -135.5,-135.47 0,-74.82 60.65,-135.5 135.5,-135.5z"/>
   <path class="fil2" d="M4809.51 66.24c197.15,0 356.95,159.77 356.95,356.92 0,197.15 -159.8,356.95 -356.95,356.95 -197.15,0 -356.95,-159.8 -356.95,-356.95 0,-197.15 159.8,-356.92 356.95,-356.92zm0 199.57c86.91,0 157.36,70.44 157.36,157.36 0,86.91 -70.44,157.38 -157.36,157.38 -86.91,0 -157.38,-70.47 -157.38,-157.38 0,-86.91 70.47,-157.36 157.38,-157.36z"/>
  </g>
 </g>
</svg>
